#!OML:ASF E:\Steps\Project 1\Capture day 1\Session 2\Subject.ASF
:FULLY-SPECIFIED
:DEGREES
96
root 9.2473 16.2898 19.6371 -152.197 -2.49349 179.873
lowerback -31.5061 -1.65187 -4.96112
upperback -3.65508 -1.65191 -0.110341
thorax 12.3822 -1.48691 1.80327
lowerneck -1.98237 -3.44343 -0.156977
upperneck 4.09057 -4.59406 -0.825533
head 1.58061 -2.32509 -0.319471
rclavicle 2.48481e-016 4.77083e-015
rhumerus -35.1226 -22.5288 -78.777
rradius 25.0966
rwrist 4.54044
rhand -9.20777 -50.9327
rfingers 7.12502
rthumb 16.7464 -80.2304
lclavicle 2.48481e-016 4.77083e-015
lhumerus -28.3713 9.7657 81.1473
lradius 15.355
lwrist -12.9849
lhand -22.0749 -12.963
lfingers 7.12502
lthumb 4.33641 16.9726
rfemur -23.7781 8.13382 17.759
rtibia 6.91801
rfoot -19.2359 -6.00249
rtoes -32.6151
lfemur -24.9974 -10.7484 -16.5608
ltibia 7.96071
lfoot -8.00464 1.9775
ltoes -32.0213
97
root 9.24744 16.289 19.6385 -152.178 -2.51229 179.929
lowerback -31.5258 -1.64874 -4.90397
upperback -3.6797 -1.67639 -0.0818609
thorax 12.3646 -1.49755 1.79308
lowerneck -1.96075 -3.46848 -0.0723395
upperneck 4.04047 -4.62583 -0.939285
head 1.55592 -2.34165 -0.367862
rclavicle -3.23025e-015 1.15295e-014
rhumerus -35.1938 -22.5874 -78.7399
rradius 25.17
rwrist 4.62706
rhand -9.15485 -50.7265
rfingers 7.12502
rthumb 16.7974 -80.0199
lclavicle -3.23025e-015 1.15295e-014
lhumerus -28.4651 9.4203 81.3401
lradius 15.4406
lwrist -12.3738
lhand -22.2314 -13.0705
lfingers 7.12502
lthumb 4.18536 16.8682
rfemur -23.7973 8.21375 17.8017
rtibia 6.91668
rfoot -19.2709 -6.02289
rtoes -32.517
lfemur -25.048 -10.7654 -16.47
ltibia 8.0006
lfoot -8.0101 2.01237
ltoes -32.3829
98
root 9.24786 16.2894 19.6407 -152.204 -2.57296 179.915
lowerback -31.4803 -1.66448 -4.91269
upperback -3.68782 -1.69527 -0.0817566
thorax 12.3376 -1.50549 1.79206
lowerneck -1.96443 -3.50885 0.0264507
upperneck 4.00653 -4.67859 -1.04662
head 1.54053 -2.36837 -0.417768
rclavicle -2.31087e-014 1.78906e-014
rhumerus -35.234 -22.7907 -78.6769
rradius 25.1602
rwrist 4.79825
rhand -9.18172 -50.4611
rfingers 7.12502
rthumb 16.7715 -79.7567
lclavicle -2.31087e-014 1.78906e-014
lhumerus -28.5242 9.27159 81.4252
lradius 15.5055
lwrist -12.4423
lhand -22.0808 -12.997
lfingers 7.12502
lthumb 4.33076 16.9387
rfemur -23.7392 8.27664 17.7811
rtibia 6.87699
rfoot -19.2985 -6.10088
rtoes -32.4097
lfemur -25.0391 -10.7813 -16.4703
ltibia 8.0107
lfoot -7.99873 1.96994
ltoes -32.6863
99
root 9.24815 16.2904 19.6433 -152.249 -2.61732 179.915
lowerback -31.4306 -1.6533 -4.91922
upperback -3.66894 -1.671 -0.100573
thorax 12.336 -1.49174 1.78651
lowerneck -1.98193 -3.55563 0.121266
upperneck 3.97669 -4.74005 -1.14235
head 1.52912 -2.39921 -0.46396
rclavicle 1.26228e-014 -8.74653e-015
rhumerus -35.2059 -22.8299 -78.7389
rradius 25.1924
rwrist 4.72147
rhand -9.29033 -50.4867
rfingers 7.12502
rthumb 16.6669 -79.7911
lclavicle 1.26228e-014 -8.74653e-015
lhumerus -28.478 9.43564 81.3541
lradius 15.4402
lwrist -12.8856
lhand -21.7541 -13.2297
lfingers 7.12502
lthumb 4.64624 16.6993
rfemur -23.666 8.31429 17.7855
rtibia 6.8198
rfoot -19.3113 -6.15843
rtoes -32.4475
lfemur -25.0009 -10.7629 -16.4766
ltibia 8.00704
lfoot -7.9774 1.89204
ltoes -32.3994
100
root 9.24814 16.2907 19.6451 -152.278 -2.61431 179.934
lowerback -31.3933 -1.65423 -4.90809
upperback -3.66199 -1.67606 -0.0836084
thorax 12.3292 -1.49213 1.79805
lowerneck -2.00366 -3.58156 0.174755
upperneck 3.94497 -4.7724 -1.24293
head 1.51887 -2.41634 -0.50437
rclavicle 3.47873e-016 -8.34896e-015
rhumerus -35.165 -22.6375 -78.8421
rradius 25.2787
rwrist 4.44184
rhand -9.38891 -50.561
rfingers 7.12502
rthumb 16.572 -79.8734
lclavicle 3.47873e-016 -8.34896e-015
lhumerus -28.4482 10.0317 81.1498
lradius 15.37
lwrist -13.8845
lhand -21.6098 -13.1558
lfingers 7.12502
lthumb 4.7856 16.7701
rfemur -23.6338 8.32276 17.8136
rtibia 6.78318
rfoot -19.3228 -6.1891
rtoes -32.826
lfemur -24.9785 -10.7372 -16.4706
ltibia 8.01148
lfoot -7.96275 1.8951
ltoes -32.3
101
root 9.24827 16.2901 19.6456 -152.298 -2.62766 179.899
lowerback -31.3852 -1.70002 -4.94062
upperback -3.65037 -1.72499 -0.0546406
thorax 12.3438 -1.51527 1.82776
lowerneck -2.02957 -3.59755 0.194662
upperneck 3.91013 -4.79066 -1.3402
head 1.50931 -2.42692 -0.538016
rclavicle 1.59028e-015 7.55382e-015
rhumerus -35.1164 -22.5971 -78.8322
rradius 25.2724
rwrist 4.37909
rhand -9.35109 -50.2631
rfingers 7.12502
rthumb 16.6085 -79.5724
lclavicle 1.59028e-015 7.55382e-015
lhumerus -28.4611 10.4141 81.0932
lradius 15.387
lwrist -14.8034
lhand -21.6971 -12.6828
lfingers 7.12502
lthumb 4.70124 17.245
rfemur -23.5929 8.30831 17.783
rtibia 6.74936
rfoot -19.2258 -6.24309
rtoes -33.0239
lfemur -24.9495 -10.7902 -16.5018
ltibia 7.99015
lfoot -7.96905 1.94377
ltoes -32.318
102
root 9.24843 16.2901 19.6467 -152.29 -2.66489 179.906
lowerback -31.4422 -1.71935 -4.92903
upperback -3.62028 -1.74795 -0.0393805
thorax 12.4043 -1.52499 1.827
lowerneck -2.0701 -3.62486 0.226649
upperneck 3.87362 -4.82463 -1.42482
head 1.50166 -2.4448 -0.570359
rclavicle -3.52843e-015 2.14687e-014
rhumerus -35.0952 -22.5898 -78.8561
rradius 25.3166
rwrist 4.40269
rhand -9.27776 -50.0966
rfingers 7.12502
rthumb 16.679 -79.4
lclavicle -3.52843e-015 2.14687e-014
lhumerus -28.4047 10.1214 81.332
lradius 15.3298
lwrist -14.3434
lhand -22.0289 -12.8181
lfingers 7.12502
lthumb 4.38089 17.1166
rfemur -23.5742 8.35485 17.7814
rtibia 6.69739
rfoot -19.097 -6.28958
rtoes -32.7383
lfemur -24.9578 -10.8553 -16.4609
ltibia 7.96544
lfoot -7.96767 1.96467
ltoes -32.1928
103
root 9.24839 16.2909 19.648 -152.28 -2.66423 179.935
lowerback -31.4891 -1.70623 -4.90012
upperback -3.5932 -1.73347 -0.0439582
thorax 12.4535 -1.51668 1.81061
lowerneck -2.14225 -3.6616 0.301889
upperneck 3.84075 -4.87188 -1.51997
head 1.49926 -2.46881 -0.614186
rclavicle 5.01931e-015 1.23246e-014
rhumerus -35.0563 -22.4648 -78.9799
rradius 25.388
rwrist 4.25291
rhand -9.28958 -50.3048
rfingers 7.12502
rthumb 16.6677 -79.6092
lclavicle 5.01931e-015 1.23246e-014
lhumerus -28.3263 9.86151 81.5193
lradius 15.2634
lwrist -13.6764
lhand -22.0408 -13.2086
lfingers 7.12502
lthumb 4.36935 16.7263
rfemur -23.623 8.36306 17.8056
rtibia 6.76427
rfoot -19.1426 -6.22324
rtoes -32.172
lfemur -24.992 -10.8181 -16.4369
ltibia 7.99872
lfoot -7.951 1.93015
ltoes -32.3626
104
root 9.24885 16.2918 19.6496 -152.294 -2.64851 179.888
lowerback -31.4666 -1.7096 -4.95339
upperback -3.59113 -1.71679 -0.0675303
thorax 12.4448 -1.51076 1.82109
lowerneck -2.20099 -3.69944 0.393634
upperneck 3.8126 -4.92116 -1.62787
head 1.49525 -2.49398 -0.664527
rclavicle -4.22417e-015 -1.07344e-014
rhumerus -35.023 -22.3979 -79.0699
rradius 25.4083
rwrist 4.13467
rhand -9.22544 -50.3591
rfingers 7.12502
rthumb 16.7294 -79.6582
lclavicle -4.22417e-015 -1.07344e-014
lhumerus -28.3603 9.6496 81.6343
lradius 15.3447
lwrist -13.3192
lhand -21.9452 -13.2957
lfingers 7.12502
lthumb 4.46173 16.6373
rfemur -23.6582 8.33214 17.752
rtibia 6.85945
rfoot -19.2324 -6.15601
rtoes -31.6432
lfemur -25.0105 -10.7395 -16.5239
ltibia 8.07604
lfoot -7.97257 1.85024
ltoes -32.616
105
root 9.24984 16.2923 19.6513 -152.356 -2.66864 179.791
lowerback -31.3876 -1.74673 -5.06367
upperback -3.57167 -1.72069 -0.0865372
thorax 12.4342 -1.51419 1.86086
lowerneck -2.25669 -3.7414 0.467902
upperneck 3.78901 -4.9758 -1.73216
head 1.49254 -2.52215 -0.711018
rclavicle -7.35503e-015 1.19271e-015
rhumerus -34.9896 -22.3172 -79.134
rradius 25.4305
rwrist 4.06716
rhand -9.11998 -50.2877
rfingers 7.12502
rthumb 16.8309 -79.5783
lclavicle -7.35503e-015 1.19271e-015
lhumerus -28.3879 9.53544 81.7211
lradius 15.4314
lwrist -13.0863
lhand -21.9816 -13.3938
lfingers 7.12502
lthumb 4.4265 16.54
rfemur -23.5792 8.30168 17.6563
rtibia 6.84637
rfoot -19.2609 -6.18665
rtoes -31.6918
lfemur -24.9582 -10.7247 -16.653
ltibia 8.11082
lfoot -8.01388 1.76769
ltoes -32.5431
106
root 9.25122 16.2925 19.6532 -152.42 -2.67937 179.76
lowerback -31.3344 -1.78609 -5.11732
upperback -3.5365 -1.74703 -0.0698949
thorax 12.455 -1.52533 1.89895
lowerneck -2.32096 -3.76803 0.504969
upperneck 3.77546 -5.00928 -1.82719
head 1.49586 -2.54033 -0.748575
rclavicle 4.17448e-015 3.29983e-014
rhumerus -34.9125 -22.2714 -79.1495
rradius 25.3748
rwrist 4.06074
rhand -9.14404 -50.1555
rfingers 7.12502
rthumb 16.8078 -79.448
lclavicle 4.17448e-015 3.29983e-014
lhumerus -28.3596 9.45454 81.8442
lradius 15.4801
lwrist -12.7112
lhand -21.9987 -13.4909
lfingers 7.12502
lthumb 4.41006 16.4432
rfemur -23.5099 8.32158 17.6266
rtibia 6.83641
rfoot -19.3 -6.20682
rtoes -31.6545
lfemur -24.8906 -10.766 -16.6784
ltibia 8.08349
lfoot -8.00503 1.75453
ltoes -32.4037
107
root 9.25234 16.2929 19.6552 -152.448 -2.64752 179.754
lowerback -31.3312 -1.80805 -5.13755
upperback -3.51057 -1.76453 -0.0548155
thorax 12.4854 -1.53302 1.91918
lowerneck -2.36658 -3.78469 0.52036
upperneck 3.74607 -5.02912 -1.91763
head 1.49165 -2.55185 -0.780131
rclavicle -7.00716e-015 1.47101e-014
rhumerus -34.8235 -22.2894 -79.1548
rradius 25.2817
rwrist 4.15155
rhand -9.22776 -50.0738
rfingers 7.12502
rthumb 16.7272 -79.3732
lclavicle -7.00716e-015 1.47101e-014
lhumerus -28.356 9.2623 82.0023
lradius 15.5626
lwrist -12.2656
lhand -22.0207 -13.2556
lfingers 7.12502
lthumb 4.38877 16.6789
rfemur -23.518 8.24759 17.6398
rtibia 6.88345
rfoot -19.316 -6.15439
rtoes -31.9285
lfemur -24.8398 -10.8323 -16.6735
ltibia 8.01591
lfoot -7.95914 1.82808
ltoes -32.552
